
      <svg data-logo="logo" xmlns="http://www.w3.org/2000/svg" viewBox="0 0 210.34999084472656 35">
        <g id="logogram" transform="
    translate(0, 0.5)
    rotate(0 24 17)
    
  "><path d="M15.4992 0H36.5808L21.0816 22.9729H0L15.4992 0Z" fill="#007AFF"/><path d="M16.4224 25.102L10.4192 34H32.5008L48 11.0271H31.7024L22.2064 25.102H16.4224Z" fill="#312ECB"/></g>
        <g id="logotype" transform="translate(54, 3.0024999999999995)"><path fill="#1f1f1f" d="M19.90 27L15.17 27L5.41 2.50L11.07 2.50L16.68 18.07Q17.23 19.61 17.55 21.16L17.55 21.16Q17.73 20.38 17.94 19.60Q18.15 18.81 18.43 18.07L18.43 18.07L24.03 2.50L29.59 2.50L19.90 27ZM32.91 7.29L32.91 7.29Q31.73 7.29 30.90 6.47Q30.08 5.65 30.08 4.49L30.08 4.49Q30.08 3.37 30.90 2.55Q31.73 1.73 32.91 1.73L32.91 1.73Q34.14 1.73 34.95 2.55Q35.75 3.37 35.75 4.49L35.75 4.49Q35.75 5.68 34.95 6.49Q34.14 7.29 32.91 7.29ZM35.30 27L30.57 27L30.57 8.80L35.30 8.80L35.30 27ZM53.08 27L37.19 27L37.19 26.48L45.16 13.84Q45.48 13.31 46.01 12.72L46.01 12.72L37.57 12.72L37.57 8.80L53.25 8.80L53.25 9.32L45.20 22.17Q44.92 22.59 44.54 23.08L44.54 23.08L53.08 23.08L53.08 27ZM67.36 27.45L67.36 27.45Q64.63 27.45 62.30 26.48Q59.97 25.50 58.24 23.75Q56.51 21.99 55.54 19.70Q54.58 17.41 54.58 14.78L54.58 14.78Q54.58 12.16 55.54 9.85Q56.51 7.54 58.24 5.79Q59.97 4.04 62.30 3.04Q64.63 2.04 67.36 2.04L67.36 2.04Q70.09 2.04 72.40 3.04Q74.71 4.04 76.42 5.79Q78.14 7.54 79.10 9.85Q80.06 12.16 80.06 14.78L80.06 14.78Q80.06 17.48 79.05 19.84Q78.03 22.20 76.25 23.92L76.25 23.92L79.61 29.00L74.29 29.00L72.54 26.41Q71.34 26.89 70.05 27.18Q68.76 27.45 67.36 27.45ZM67.36 22.91L67.36 22.91Q68.90 22.91 70.19 22.41L70.19 22.41L67.25 17.97L72.57 17.97L73.66 19.58Q74.99 17.52 74.99 14.78L74.99 14.78Q74.99 12.54 74.06 10.69Q73.13 8.83 71.43 7.71Q69.74 6.59 67.36 6.59L67.36 6.59Q64.98 6.59 63.24 7.71Q61.51 8.83 60.58 10.69Q59.66 12.54 59.66 14.78L59.66 14.78Q59.66 16.99 60.58 18.84Q61.51 20.70 63.24 21.80Q64.98 22.91 67.36 22.91ZM89.09 27.42L89.09 27.42Q87.13 27.42 85.56 26.51Q83.98 25.60 83.07 23.90Q82.16 22.20 82.16 19.93L82.16 19.93L82.16 8.80L86.89 8.80L86.89 18.77Q86.89 21.12 87.83 22.20Q88.78 23.29 90.53 23.29L90.53 23.29Q92.03 23.29 93.17 22.20Q94.31 21.12 94.31 18.77L94.31 18.77L94.31 8.80L99.03 8.80L99.03 27L94.45 27L94.45 24.27Q93.78 25.84 92.50 26.63Q91.23 27.42 89.09 27.42ZM110.13 27.45L110.13 27.45Q107.64 27.45 105.59 26.18Q103.55 24.90 102.34 22.75Q101.13 20.59 101.13 17.97L101.13 17.97Q101.13 16.01 101.83 14.28Q102.53 12.54 103.76 11.23Q104.98 9.92 106.61 9.17Q108.24 8.41 110.13 8.41L110.13 8.41Q112.51 8.41 113.84 9.31Q115.17 10.20 115.90 11.67L115.90 11.67L115.90 8.80L120.59 8.80L120.59 27L116.01 27L116.01 24.02Q115.27 25.57 113.92 26.51Q112.58 27.45 110.13 27.45ZM110.90 23.18L110.90 23.18Q112.47 23.18 113.61 22.47Q114.75 21.75 115.38 20.56Q116.01 19.37 116.01 17.97L116.01 17.97Q116.01 16.53 115.38 15.34Q114.75 14.15 113.61 13.42Q112.47 12.68 110.90 12.68L110.90 12.68Q109.39 12.68 108.25 13.40Q107.12 14.12 106.49 15.31Q105.86 16.50 105.86 17.93L105.86 17.93Q105.86 19.30 106.49 20.51Q107.12 21.71 108.25 22.45Q109.39 23.18 110.90 23.18ZM128.12 27L123.39 27L123.39 8.80L128.05 8.80L128.05 11.46Q129.48 8.38 133.61 8.38L133.61 8.38Q135.57 8.38 137.15 9.29Q138.72 10.20 139.63 11.88Q140.54 13.56 140.54 15.87L140.54 15.87L140.54 27L135.81 27L135.81 17.02Q135.81 14.64 134.73 13.58Q133.65 12.51 131.90 12.51L131.90 12.51Q130.39 12.51 129.25 13.58Q128.12 14.64 128.12 17.02L128.12 17.02L128.12 27ZM152.34 27L149.75 27Q147.05 27 145.62 25.67Q144.18 24.34 144.18 21.36L144.18 21.36L144.18 12.82L141.63 12.82L141.63 8.80L144.18 8.80L144.18 5.12L148.91 4.63L148.91 8.80L152.76 8.80L152.76 12.82L148.91 12.82L148.91 21.12Q148.91 22.80 150.38 22.80L150.38 22.80L152.34 22.80L152.34 27Z"/></g>
        
      </svg>
    